<svg width="236" height="65" viewBox="0 0 236 65" fill="none" xmlns="http://www.w3.org/2000/svg">
<ellipse cx="74.4181" cy="33.3031" rx="74.4181" ry="31.6585" fill="#203E75" fill-opacity="0.5"/>
<ellipse cx="148.425" cy="33.3031" rx="74.4181" ry="31.6585" fill="#932825" fill-opacity="0.5"/>
<g filter="url(#filter0_d_1923_3809)">
<path d="M27.4617 45L27.0413 39.7148H18.4329L15.8503 45H6.34106L22.2766 16.292H33.0271L36.2703 45H27.4617ZM26.2004 24.8203C26.2004 23.9128 26.2338 23.2588 26.3005 22.8584H26.1003L25.72 23.8594L24.9592 25.6011L21.4758 32.9482H26.6008L26.2205 25.7612L26.2004 24.8203ZM63.657 29.0444C63.657 29.9787 63.5035 31.1398 63.1965 32.5278L60.574 45H52.0457L54.468 33.6489C54.6949 32.7414 54.8083 32.054 54.8083 31.5869C54.8083 30.6927 54.3546 30.2456 53.447 30.2456C52.7263 30.2456 51.9456 30.7261 51.1047 31.687C50.2639 32.6346 49.7167 33.709 49.4631 34.9102L47.3811 45H38.7727L41.6755 31.3867C42.1427 29.1712 42.5431 26.8757 42.8767 24.5H51.2649C51.1715 26.1016 51.038 27.276 50.8645 28.0234H50.9446C52.039 26.7822 53.2935 25.8013 54.7083 25.0806C56.1363 24.3599 57.4776 23.9995 58.7322 23.9995C62.0154 23.9995 63.657 25.6812 63.657 29.0444ZM78.4915 18.7544C78.4915 20.0223 78.0243 21.05 77.0901 21.8374C76.1692 22.6248 74.9547 23.0186 73.4465 23.0186C72.1119 23.0186 71.0242 22.6715 70.1833 21.9775C69.3425 21.2702 68.9221 20.3893 68.9221 19.335C68.9221 18.0537 69.3892 17.0194 70.3235 16.2319C71.2577 15.4312 72.4856 15.0308 74.0071 15.0308C75.315 15.0308 76.3894 15.3778 77.2302 16.0718C78.071 16.7524 78.4915 17.6466 78.4915 18.7544ZM71.925 45.5005C69.9231 45.5005 68.3416 44.9733 67.1804 43.9189C66.0193 42.8646 65.4387 41.4632 65.4387 39.7148C65.4387 38.8607 65.5789 37.8197 65.8591 36.5918L68.4817 24.5H77.01L74.5076 36.3115C74.3741 36.8721 74.3074 37.3926 74.3074 37.873C74.3074 38.6338 74.7678 39.0142 75.6887 39.0142C76.4361 39.0142 77.1902 38.8473 77.9509 38.5137L76.6296 44.7197C76.2426 44.9066 75.6353 45.0801 74.8079 45.2402C73.9804 45.4137 73.0194 45.5005 71.925 45.5005ZM112.665 45H104.136L107.72 28.1035L108.661 23.7993H108.501L107.019 27.3628L98.9314 45H90.9836L89.9626 28.3638C89.8826 27.2427 89.8425 25.7212 89.8425 23.7993H89.6624C89.2753 26.7489 88.8282 29.4448 88.321 31.8872L85.5383 45H77.8708L83.9368 16.292H96.0686L97.0696 33.4487C97.0696 34.3162 97.0362 35.2171 96.9695 36.1514H97.0896C97.3165 35.5107 97.55 34.8434 97.7903 34.1494C98.0305 33.4421 98.2774 32.8081 98.531 32.2476L105.538 16.292H118.751L112.665 45ZM140.112 45H131.663C131.663 44.5729 131.763 43.3584 131.964 41.3564H131.884C129.855 44.1191 127.573 45.5005 125.037 45.5005C123.022 45.5005 121.46 44.7998 120.352 43.3984C119.258 41.9971 118.711 40.0285 118.711 37.4927C118.711 35.6776 119.058 33.8892 119.752 32.1274C120.459 30.3657 121.427 28.8976 122.655 27.7231C123.896 26.5487 125.411 25.6344 127.199 24.9805C129.001 24.3265 131.076 23.9995 133.425 23.9995C136.642 23.9995 140.018 24.4132 143.555 25.2407L140.892 37.793C140.679 38.7406 140.492 39.9417 140.332 41.3965C140.185 42.8512 140.112 44.0524 140.112 45ZM134.166 29.5449C133.845 29.4648 133.438 29.4248 132.945 29.4248C131.877 29.4248 130.916 29.7318 130.062 30.3457C129.208 30.9596 128.514 31.8805 127.98 33.1084C127.459 34.3363 127.199 35.5641 127.199 36.792C127.199 37.5928 127.372 38.2067 127.719 38.6338C128.066 39.0475 128.494 39.2544 129.001 39.2544C129.962 39.2544 130.823 38.7139 131.583 37.6328C132.344 36.5384 132.945 34.9769 133.385 32.9482L134.166 29.5449ZM161.472 30.5659C160.778 30.2723 159.924 29.9987 158.91 29.7451C157.909 29.4782 157.001 29.3447 156.187 29.3447C154.959 29.3447 154.345 29.7251 154.345 30.4858C154.345 30.8996 154.499 31.2065 154.806 31.4067C155.113 31.5936 155.52 31.7938 156.027 32.0073C157.615 32.6479 158.743 33.2285 159.41 33.749C160.091 34.2562 160.592 34.8634 160.912 35.5708C161.232 36.2648 161.392 37.139 161.392 38.1934C161.392 39.6348 160.972 40.9093 160.131 42.0171C159.29 43.1115 158.069 43.9657 156.468 44.5796C154.866 45.1935 152.924 45.5005 150.642 45.5005C149.294 45.5005 147.986 45.4004 146.718 45.2002C145.463 45.0133 144.396 44.7798 143.515 44.4995L144.616 38.6138C146.992 39.6948 149.1 40.2354 150.942 40.2354C152.61 40.2354 153.445 39.8016 153.445 38.9341C153.445 38.547 153.258 38.2334 152.884 37.9932C152.524 37.7396 152.063 37.5194 151.503 37.3325C149.501 36.6785 148.093 35.8711 147.279 34.9102C146.464 33.9492 146.057 32.708 146.057 31.1865C146.057 29.7585 146.478 28.4839 147.319 27.3628C148.173 26.2417 149.341 25.4009 150.822 24.8403C152.317 24.2798 154.079 23.9995 156.107 23.9995C157.068 23.9995 158.209 24.0929 159.531 24.2798C160.852 24.4533 161.866 24.6335 162.573 24.8203L161.472 30.5659ZM179.87 30.4058H175.266L174.085 35.9712C173.898 36.8387 173.804 37.526 173.804 38.0332C173.804 38.8473 174.278 39.2544 175.226 39.2544C176.027 39.2544 176.941 39.0675 177.969 38.6938L176.747 44.5996C176.12 44.8398 175.226 45.0467 174.065 45.2202C172.917 45.4071 171.883 45.5005 170.962 45.5005C167.024 45.5005 165.056 43.6387 165.056 39.915C165.056 39.4346 165.143 38.7205 165.316 37.7729C165.503 36.8254 166.017 34.3696 166.858 30.4058H163.755L165.176 24.5H168.099L169.08 19.7754L177.969 17.7334L176.547 24.5H181.292L179.87 30.4058ZM202.292 30.1255C202.292 32.4744 201.211 34.2228 199.049 35.3706C196.9 36.5184 193.584 37.159 189.099 37.2925V37.4526C189.099 38.2267 189.426 38.834 190.08 39.2744C190.734 39.7015 191.608 39.915 192.703 39.915C193.677 39.915 194.845 39.7482 196.206 39.4146C197.581 39.0809 198.709 38.6872 199.59 38.2334L198.408 43.8188C197.367 44.3127 196.1 44.7131 194.605 45.02C193.123 45.3403 191.642 45.5005 190.16 45.5005C187.291 45.5005 185.035 44.7397 183.394 43.2183C181.752 41.6968 180.931 39.6147 180.931 36.9722C180.931 34.5698 181.492 32.3543 182.613 30.3257C183.747 28.297 185.302 26.7355 187.278 25.6411C189.266 24.5467 191.555 23.9995 194.144 23.9995C196.733 23.9995 198.735 24.5267 200.15 25.5811C201.578 26.6354 202.292 28.1502 202.292 30.1255ZM194.425 30.0854C194.425 29.7918 194.331 29.5249 194.144 29.2847C193.971 29.0444 193.657 28.9243 193.203 28.9243C192.309 28.9243 191.535 29.2646 190.881 29.9453C190.24 30.626 189.807 31.5869 189.58 32.8281C191.088 32.8281 192.269 32.6012 193.123 32.1475C193.991 31.6937 194.425 31.0063 194.425 30.0854ZM219.829 31.8071H219.789C219.122 31.4735 218.395 31.3066 217.607 31.3066C216.219 31.3066 215.091 31.707 214.224 32.5078C213.37 33.3086 212.722 34.6833 212.282 36.6318L210.52 45H201.992L204.775 31.9272C205.429 28.8843 205.856 26.4085 206.056 24.5H214.444C214.297 25.7946 214.124 27.1092 213.924 28.4438H214.004C214.791 26.9224 215.639 25.8013 216.546 25.0806C217.467 24.3599 218.535 23.9995 219.749 23.9995C220.256 23.9995 220.857 24.0863 221.551 24.2598L219.829 31.8071Z" fill="white"/>
</g>
<defs>
<filter id="filter0_d_1923_3809" x="2.34106" y="15.0312" width="223.21" height="38.4688" filterUnits="userSpaceOnUse" color-interpolation-filters="sRGB">
<feFlood flood-opacity="0" result="BackgroundImageFix"/>
<feColorMatrix in="SourceAlpha" type="matrix" values="0 0 0 0 0 0 0 0 0 0 0 0 0 0 0 0 0 0 127 0" result="hardAlpha"/>
<feOffset dy="4"/>
<feGaussianBlur stdDeviation="2"/>
<feComposite in2="hardAlpha" operator="out"/>
<feColorMatrix type="matrix" values="0 0 0 0 0 0 0 0 0 0 0 0 0 0 0 0 0 0 0.25 0"/>
<feBlend mode="normal" in2="BackgroundImageFix" result="effect1_dropShadow_1923_3809"/>
<feBlend mode="normal" in="SourceGraphic" in2="effect1_dropShadow_1923_3809" result="shape"/>
</filter>
</defs>
</svg>
